Coordinates
nRows=225
nColumns=2
inDegrees=yes
endheader
time	ankle_angle_r	
2.99395	  9.650785	
3.02722	  9.559426	
3.06048	  9.510035	
3.09375	  9.567261	
3.12702	  9.590524	
3.16028	  9.560200	
3.19355	  9.619905	
3.22681	  9.578227	
3.26008	  9.556391	
3.29335	  9.602264	
3.32661	  9.552002	
3.35988	  9.567261	
3.39315	  9.567261	
3.42641	  9.592264	
3.45968	  9.577551	
3.49294	  9.648682	
3.52621	  9.633230	
3.55948	  9.567261	
3.59274	  9.618393	
3.62601	  9.586873	
3.65927	  9.552002	
3.69254	  9.643555	
3.72581	  9.561518	
3.75907	  9.613037	
3.79234	  9.674072	
3.8256	  9.567261	
3.85887	  9.591649	
3.89214	  9.579101	
3.9254	  9.615650	
3.95867	  9.621877	
3.99194	  9.719849	
4.0252	  9.597778	
4.05847	  9.696040	
4.09173	  9.597778	
4.125	  9.613037	
4.15827	  9.599038	
4.19153	  9.613037	
4.2248	  9.596905	
4.25806	  9.651524	
4.29133	  9.605165	
4.3246	  9.605555	
4.35786	  9.651234	
4.39113	  9.704496	
4.4244	  9.681558	
4.45766	  9.666203	
4.49093	  9.613037	
4.52419	  9.643555	
4.55746	  9.611977	
4.59073	  9.643555	
4.62399	  9.621390	
4.65726	  9.628296	
4.69052	  9.652102	
4.72379	  9.606421	
4.75706	  9.643555	
4.79032	  9.702176	
4.82359	  9.637229	
4.85685	  9.622067	
4.89012	  9.698458	
4.92339	  9.674072	
4.95665	  9.640174	
4.98992	  9.655239	
5.02319	  9.597778	
5.05645	  9.643555	
5.08972	  9.613037	
5.12298	  9.571609	
5.15625	  9.607678	
5.18952	  9.668810	
5.22278	  9.582520	
5.25605	  9.567261	
5.28931	  9.613379	
5.32258	  9.597778	
5.35585	  9.588221	
5.38911	  9.582520	
5.42238	  9.562675	
5.45565	  9.634578	
5.48891	  9.582520	
5.52218	  9.573929	
5.55544	  9.593580	
5.58871	  9.563159	
5.62198	  9.547997	
5.65524	  9.609129	
5.68851	  9.548190	
5.72177	  9.567261	
5.75504	  9.594160	
5.78831	  9.567261	
5.82157	  9.552002	
5.85484	  9.609709	
5.8881	  9.552002	
5.92137	  9.576249	
5.95464	  9.588596	
5.9879	  9.582520	
6.02117	  9.579675	
6.05444	  9.615786	
6.0877	  9.542047	
6.12097	  9.585074	
6.15423	  9.597778	
6.1875	  9.597778	
6.22077	  9.608507	
6.25403	  9.610869	
6.2873	  9.556145	
6.32056	  9.519509	
6.35383	  9.628296	
6.3871	  9.603123	
6.42036	  9.567261	
6.45363	  9.613037	
6.4869	  9.599270	
6.52016	  9.614431	
6.55343	  9.690629	
6.58669	  9.614239	
6.61996	  9.616351	
6.65323	  9.674072	
6.68649	  9.613037	
6.71976	  9.657185	
6.75302	  9.674072	
6.78629	  9.597778	
6.81956	  9.567785	
6.85282	  9.643555	
6.88609	  9.537074	
6.91935	  9.613506	
6.95262	  9.567536	
6.98589	  9.521648	
7.01915	  9.567094	
7.05242	  9.582214	
7.08569	  9.551753	
7.11895	  9.597087	
7.15222	  9.552887	
7.18548	  9.566182	
7.21875	  9.583156	
7.25202	  9.552734	
7.28528	  9.552002	
7.31855	  9.611185	
7.35181	  9.581497	
7.38508	  9.579162	
7.41835	  9.595346	
7.45161	  9.585145	
7.48488	  9.565851	
7.51815	  9.613037	
7.55141	  9.580917	
7.58468	  9.550303	
7.61794	  9.609445	
7.65121	  9.593993	
7.68448	  9.582520	
7.71774	  9.597778	
7.75101	  9.597778	
7.78427	  9.575681	
7.81754	  9.597778	
7.85081	  9.625823	
7.88407	  9.541883	
7.91734	  9.582520	
7.9506	  9.600541	
7.98387	  9.557721	
8.01714	  9.585476	
8.0504	  9.600831	
8.08367	  9.582520	
8.11694	  9.597778	
8.1502	  9.624953	
8.18347	  9.555442	
8.21673	  9.617687	
8.25	  9.620303	
8.28327	  9.570991	
8.31653	  9.639729	
8.3498	  9.559848	
8.38306	  9.613037	
8.41633	  9.625386	
8.4496	  9.601992	
8.48286	  9.639245	
8.51613	  9.602185	
8.5494	  9.630045	
8.58266	  9.558061	
8.61593	  9.628296	
8.64919	  9.567261	
8.68246	  9.592889	
8.71573	  9.602765	
8.74899	  9.567252	
8.78226	  9.592879	
8.81552	  9.638278	
8.84879	  9.587893	
8.88206	  9.578201	
8.91532	  9.674072	
8.94859	  9.618701	
8.98185	  9.588280	
9.01512	  9.631841	
9.04839	  9.613037	
9.08165	  9.603828	
9.11492	  9.625114	
9.14819	  9.552002	
9.18145	  9.499886	
9.21472	  9.621859	
9.24798	  9.536743	
9.28125	  9.528114	
9.31452	  9.582520	
9.34778	  9.536743	
9.38105	  9.535325	
9.41431	  9.559019	
9.44758	  9.552002	
9.48085	  9.499853	
9.51411	  9.559309	
9.54738	  9.528888	
9.58065	  9.498467	
9.61391	  9.582520	
9.64718	  9.521356	
9.68044	  9.506226	
9.71371	  9.574633	
9.74698	  9.544727	
9.78024	  9.519680	
9.81351	  9.567261	
9.84677	  9.545017	
9.88004	  9.511631	
9.91331	  9.567261	
9.94657	  9.528179	
9.97984	  9.567261	
10.0131	  9.604280	
10.0464	  9.519035	
10.0796	  9.564618	
10.1129	  9.567261	
10.1462	  9.564231	
10.1794	  9.570056	
10.2127	  9.607116	
10.246	  9.573086	
10.2792	  9.557730	
10.3125	  9.643555	
10.3458	  9.607503	
10.379	  9.648993	
10.4123	  9.623719	
10.4456	  9.618281	
